<?xml version="1.0" standalone="no"?>
<!DOCTYPE svg PUBLIC "-//W3C//DTD SVG 20010904//EN"
 "http://www.w3.org/TR/2001/REC-SVG-20010904/DTD/svg10.dtd">
<svg version="1.0" xmlns="http://www.w3.org/2000/svg"
 width="1000.000000pt" height="1000.000000pt" viewBox="0 0 1000.000000 1000.000000"
 preserveAspectRatio="xMidYMid meet">

<g transform="translate(0.000000,1000.000000) scale(0.100000,-0.100000)"
fill="#000000" stroke="none">
<path d="M5429 5599 c-175 -115 -209 -144 -209 -179 0 -40 26 -63 62 -56 15 3
56 24 91 47 34 23 103 66 152 96 96 58 115 76 115 105 0 25 -44 68 -68 68 -11
0 -75 -37 -143 -81z"/>
<path d="M4351 5621 c-24 -24 -25 -31 -9 -66 8 -19 46 -43 142 -91 72 -36 148
-75 168 -87 35 -20 40 -21 65 -7 15 9 32 28 37 42 17 48 -12 74 -172 150 -172
82 -201 89 -231 59z"/>
<path d="M4390 5139 c-85 -34 -123 -133 -83 -216 47 -99 197 -107 259 -13 37
55 40 105 12 159 -36 70 -115 99 -188 70z m10 -63 c6 -8 10 -25 8 -38 -2 -18
-9 -23 -33 -23 -24 0 -31 5 -33 23 -4 25 13 52 33 52 7 0 18 -7 25 -14z"/>
<path d="M5523 5111 c-107 -50 -109 -217 -3 -271 81 -41 173 -12 211 68 65
133 -72 267 -208 203z m32 -63 c12 -37 -35 -64 -63 -36 -16 16 -15 33 3 51 19
19 52 11 60 -15z"/>
<path d="M7645 4751 c-64 -29 -119 -105 -144 -199 -7 -23 -17 -42 -23 -42 -6
0 -42 -9 -79 -20 l-69 -21 0 -49 c0 -28 4 -50 8 -50 4 0 46 8 93 18 46 10 91
17 99 15 8 -2 24 -20 35 -41 28 -52 82 -76 166 -75 97 2 150 35 185 118 22 52
22 177 -1 231 -46 111 -166 163 -270 115z m130 -133 c19 -17 28 -38 35 -82 9
-54 8 -60 -16 -91 -47 -62 -117 -55 -148 13 -25 55 -15 105 29 149 39 39 64
41 100 11z"/>
<path d="M2142 4679 c-50 -20 -111 -73 -136 -119 -64 -117 -11 -242 133 -315
84 -43 227 17 287 120 10 18 13 17 95 -3 46 -12 103 -26 127 -31 l43 -9 -3 56
-3 56 -122 25 c-115 23 -123 26 -123 48 0 39 -25 87 -63 120 -59 51 -174 77
-235 52z m140 -130 c58 -31 60 -122 3 -164 -17 -14 -45 -28 -62 -31 -26 -5
-37 0 -77 38 -25 25 -46 53 -46 62 0 27 28 68 63 94 33 23 76 24 119 1z"/>
<path d="M5737 4275 c-8 -8 -25 -31 -37 -50 -12 -20 -61 -69 -108 -110 -72
-62 -99 -79 -162 -100 -160 -53 -355 -85 -521 -85 -226 0 -447 100 -478 217
-13 46 -41 64 -68 42 -20 -17 -12 -92 17 -148 48 -94 239 -184 449 -213 158
-20 499 26 670 92 63 24 95 46 171 113 95 83 160 164 160 198 0 25 -35 59 -59
59 -11 0 -26 -7 -34 -15z"/>
<path d="M4106 2132 c-11 -19 -26 -145 -32 -285 -6 -128 -9 -147 -23 -143
-118 35 -363 46 -471 20 -221 -52 -379 -222 -316 -342 23 -44 77 -89 141 -119
52 -24 75 -28 166 -31 128 -4 238 14 393 65 118 39 178 77 210 133 19 33 20
50 18 348 -2 311 -2 314 -24 338 -23 24 -52 31 -62 16z m-131 -529 c44 -8 86
-19 93 -25 14 -12 16 -57 3 -92 -30 -77 -440 -175 -577 -137 -54 15 -124 66
-124 91 0 26 53 85 104 115 125 73 285 89 501 48z"/>
<path d="M5476 1938 c-36 -19 -38 -22 -33 -56 3 -20 13 -103 22 -184 17 -144
16 -148 -3 -175 -84 -121 15 -260 218 -309 70 -17 257 -17 335 0 190 40 319
175 320 333 0 47 -5 68 -21 90 -58 78 -145 102 -302 84 -165 -18 -292 -41
-350 -63 -30 -11 -57 -16 -62 -12 -4 5 -17 59 -29 119 -25 128 -39 183 -49
189 -4 2 -24 -5 -46 -16z m724 -353 c35 -18 38 -45 14 -103 -49 -117 -203
-183 -394 -169 -148 12 -280 75 -280 136 0 45 150 111 310 135 134 20 313 20
350 1z"/>
</g>
</svg>
